<svg id="svg" version="1.1" xmlns="http://www.w3.org/2000/svg" xmlns:xlink="http://www.w3.org/1999/xlink" width="400" height="400" viewBox="0, 0, 400,400"><g id="svgg"><path id="path0" d="M75.600 117.479 C 75.270 117.610,74.860 117.954,74.689 118.243 C 74.310 118.884,74.253 218.244,74.631 219.857 C 74.778 220.486,75.237 222.029,75.649 223.287 C 76.062 224.545,76.400 226.477,76.400 227.580 C 76.400 229.799,77.012 234.422,77.674 237.200 C 77.910 238.190,78.317 240.178,78.578 241.619 C 78.839 243.059,79.167 244.423,79.308 244.651 C 79.448 244.878,79.759 246.289,79.998 247.786 C 80.237 249.283,80.848 251.699,81.355 253.154 C 81.862 254.609,82.410 256.512,82.572 257.381 C 82.734 258.251,83.197 259.610,83.600 260.400 C 84.003 261.190,84.456 262.490,84.605 263.288 C 84.755 264.085,85.310 265.592,85.839 266.637 C 86.367 267.681,86.800 268.849,86.800 269.232 C 86.800 270.007,88.572 273.843,89.927 276.000 C 90.410 276.770,91.598 279.020,92.565 281.000 C 93.532 282.980,94.881 285.300,95.562 286.155 C 96.243 287.010,96.806 288.000,96.813 288.355 C 96.821 288.710,97.354 289.720,97.999 290.600 C 98.644 291.480,99.536 292.865,99.982 293.677 C 102.283 297.869,105.475 302.130,109.625 306.552 C 111.508 308.558,113.797 311.220,114.712 312.466 C 115.627 313.713,117.158 315.294,118.114 315.981 C 119.070 316.668,121.370 318.870,123.226 320.876 C 125.082 322.882,127.545 325.151,128.700 325.918 C 129.855 326.686,130.800 327.462,130.800 327.644 C 130.800 327.826,131.805 328.745,133.032 329.687 C 134.260 330.629,136.015 331.983,136.932 332.696 C 137.850 333.409,139.770 334.696,141.200 335.558 C 142.630 336.419,144.236 337.591,144.770 338.162 C 145.303 338.733,145.883 339.200,146.057 339.200 C 146.530 339.200,153.273 343.194,154.200 344.022 C 154.640 344.416,156.350 345.375,158.000 346.154 C 159.650 346.933,163.610 348.955,166.800 350.648 C 178.160 356.676,179.431 357.314,182.000 358.283 C 183.430 358.822,185.500 359.776,186.600 360.403 C 187.700 361.030,189.495 361.846,190.589 362.218 C 191.683 362.589,193.210 363.321,193.982 363.846 C 194.754 364.371,195.839 364.799,196.393 364.797 C 198.198 364.791,208.192 361.285,209.947 360.041 C 210.526 359.631,212.557 358.652,214.460 357.866 C 216.364 357.080,220.954 354.871,224.660 352.958 C 228.367 351.045,233.402 348.460,235.849 347.214 C 238.296 345.967,240.996 344.396,241.849 343.722 C 242.702 343.047,244.479 341.912,245.798 341.200 C 248.693 339.635,251.249 337.905,251.998 337.003 C 252.301 336.637,253.371 335.913,254.375 335.394 C 257.506 333.774,266.335 326.910,267.309 325.338 C 267.479 325.064,269.279 323.441,271.309 321.731 C 273.339 320.022,275.090 318.502,275.200 318.353 C 275.310 318.204,277.801 315.548,280.737 312.450 C 283.672 309.353,286.642 306.063,287.337 305.140 C 288.031 304.216,289.089 302.817,289.686 302.030 C 290.283 301.244,291.146 299.917,291.603 299.082 C 292.060 298.247,293.019 296.897,293.733 296.082 C 294.956 294.686,299.200 287.988,299.200 287.454 C 299.200 287.319,300.024 286.004,301.031 284.533 C 303.580 280.811,305.641 276.558,307.396 271.400 C 308.219 268.980,309.419 265.881,310.061 264.513 C 311.495 261.458,314.994 250.857,315.379 248.400 C 315.534 247.410,316.083 244.710,316.600 242.400 C 317.116 240.090,317.832 236.400,318.192 234.200 C 318.551 232.000,319.015 229.432,319.222 228.494 C 319.430 227.556,319.604 225.306,319.608 223.494 C 319.615 221.027,319.865 219.497,320.607 217.400 C 322.295 212.624,321.938 202.198,320.045 201.028 C 319.064 200.422,314.708 200.779,311.526 201.726 C 309.457 202.342,306.689 202.803,304.200 202.945 C 302.000 203.070,299.030 203.450,297.600 203.790 C 296.170 204.129,293.830 204.599,292.400 204.834 C 290.970 205.069,288.884 205.518,287.765 205.831 C 285.277 206.527,263.531 206.658,261.768 205.988 C 261.172 205.761,259.315 205.392,257.642 205.167 C 255.642 204.899,253.572 204.271,251.600 203.335 C 249.950 202.552,246.890 201.301,244.800 200.555 C 242.710 199.809,240.933 198.997,240.850 198.750 C 240.768 198.502,240.376 197.976,239.981 197.581 C 238.830 196.430,239.463 196.389,254.323 196.660 C 266.631 196.884,268.494 196.835,270.800 196.232 C 272.230 195.858,275.200 195.397,277.400 195.208 C 279.600 195.019,281.940 194.677,282.600 194.447 C 283.260 194.218,285.812 193.850,288.272 193.630 C 291.618 193.330,293.380 192.955,295.272 192.137 L 297.800 191.045 309.079 191.023 C 317.776 191.005,320.478 190.881,320.879 190.480 C 321.606 189.755,321.607 181.847,320.881 181.120 C 319.890 180.128,305.342 180.922,302.050 182.148 C 301.087 182.507,299.706 182.800,298.981 182.800 C 298.256 182.800,296.074 183.203,294.132 183.696 C 288.761 185.058,258.866 185.048,254.800 183.683 C 253.370 183.203,251.638 182.808,250.950 182.805 C 248.938 182.797,246.535 181.754,244.261 179.902 C 243.095 178.952,241.389 177.926,240.470 177.623 C 238.717 177.045,238.473 176.596,239.300 175.474 C 239.729 174.892,240.540 174.802,245.000 174.839 C 272.232 175.068,274.945 174.991,282.000 173.783 C 283.870 173.463,286.390 173.035,287.600 172.830 C 288.810 172.626,290.520 172.269,291.400 172.035 C 293.918 171.368,305.924 170.739,313.532 170.876 C 322.113 171.030,321.709 171.323,321.527 165.064 C 321.350 159.015,318.840 157.463,312.629 159.560 C 311.208 160.041,309.001 160.432,307.608 160.452 C 306.241 160.471,303.745 160.825,302.061 161.239 C 300.378 161.652,298.272 161.993,297.381 161.995 C 295.558 162.001,289.429 163.290,287.000 164.179 C 284.594 165.060,264.428 165.059,261.950 164.177 C 260.988 163.835,259.120 163.302,257.800 162.994 C 250.924 161.386,240.800 157.439,240.800 156.366 C 240.800 155.967,240.327 155.494,239.700 155.265 C 238.370 154.779,246.268 154.669,249.200 155.132 C 253.392 155.794,271.638 154.981,273.982 154.028 C 275.321 153.484,277.716 152.999,280.182 152.773 C 286.740 152.173,290.138 151.718,291.200 151.296 C 291.750 151.078,293.190 150.772,294.400 150.616 C 295.610 150.461,297.500 150.074,298.600 149.757 C 300.115 149.321,302.974 149.189,310.396 149.216 C 322.168 149.259,321.600 149.514,321.600 144.178 C 321.600 139.019,319.687 137.518,314.600 138.683 C 313.280 138.985,310.040 139.390,307.400 139.583 C 302.130 139.968,297.406 140.688,296.267 141.281 C 291.354 143.840,260.465 143.948,253.400 141.431 C 252.520 141.118,251.250 140.751,250.578 140.616 C 249.906 140.481,248.491 139.755,247.433 139.003 C 246.375 138.251,243.820 137.073,241.755 136.385 C 238.122 135.175,237.396 134.576,238.500 133.702 C 238.811 133.455,246.034 133.278,257.600 133.232 C 276.367 133.158,279.946 132.956,283.209 131.787 C 285.381 131.008,288.270 130.477,292.830 130.020 C 294.716 129.830,297.506 129.287,299.030 128.813 C 301.577 128.020,302.535 127.959,310.908 128.053 C 322.024 128.178,321.403 128.480,321.394 122.956 C 321.385 116.839,322.208 117.042,298.593 117.351 C 278.431 117.615,270.881 118.016,268.400 118.953 C 266.590 119.638,262.697 120.190,256.400 120.655 C 254.530 120.793,252.514 121.152,251.920 121.453 C 250.864 121.987,249.960 122.255,242.600 124.208 C 239.194 125.112,234.706 126.706,231.600 128.115 C 226.939 130.229,225.625 130.800,225.416 130.800 C 224.730 130.800,209.568 141.014,207.600 142.802 C 205.398 144.803,204.774 145.361,202.087 147.734 C 199.822 149.733,197.520 150.222,195.474 149.137 C 194.134 148.426,187.649 142.839,187.208 142.015 C 186.994 141.615,185.779 140.704,184.509 139.993 C 181.987 138.580,178.436 136.144,177.797 135.388 C 177.575 135.126,176.405 134.411,175.197 133.799 C 173.988 133.187,172.460 132.284,171.800 131.793 C 171.140 131.301,169.880 130.672,169.000 130.395 C 168.120 130.117,166.410 129.400,165.200 128.800 C 163.990 128.200,162.280 127.481,161.400 127.201 C 160.520 126.921,159.080 126.326,158.200 125.880 C 157.320 125.433,155.970 124.933,155.200 124.769 C 150.396 123.746,147.765 123.118,144.400 122.193 C 142.310 121.619,139.430 120.996,138.000 120.810 C 131.996 120.026,129.352 119.545,127.627 118.924 C 124.645 117.850,77.931 116.552,75.600 117.479 M191.461 204.050 C 192.103 204.583,194.093 208.437,194.740 210.400 C 195.139 211.612,197.290 214.400,197.826 214.400 C 198.908 214.400,200.986 212.209,202.188 209.800 C 204.356 205.455,208.512 203.568,210.209 206.158 C 211.375 207.937,208.392 212.382,205.666 212.927 C 203.908 213.278,200.517 216.156,200.209 217.557 C 199.200 222.153,205.323 221.535,207.709 216.801 C 209.472 213.302,210.371 212.613,213.176 212.613 C 215.868 212.613,215.909 212.635,216.219 214.229 C 216.525 215.800,214.521 217.847,210.287 220.290 C 206.086 222.712,205.074 225.503,208.020 226.539 C 209.203 226.956,214.182 224.754,214.841 223.523 C 215.054 223.125,215.663 222.800,216.195 222.800 C 218.718 222.800,220.800 220.117,220.800 216.866 C 220.800 213.462,223.976 209.599,227.010 209.312 C 230.570 208.975,231.751 211.574,229.334 214.431 C 228.635 215.259,228.585 216.775,229.280 216.080 C 229.917 215.443,233.938 215.476,235.200 216.130 C 237.290 217.212,236.057 219.707,232.199 222.203 C 231.098 222.916,229.416 224.151,228.461 224.949 C 227.506 225.747,226.321 226.400,225.829 226.400 C 224.690 226.400,224.439 226.662,224.682 227.592 C 224.839 228.191,225.139 228.295,226.208 228.121 C 226.939 228.003,228.412 228.115,229.481 228.371 C 232.429 229.079,234.099 228.368,236.373 225.439 C 239.262 221.719,244.401 220.893,244.400 224.149 C 244.398 227.762,234.131 233.725,230.097 232.455 C 227.120 231.518,225.294 231.701,224.806 232.985 C 224.600 233.527,223.719 234.420,222.849 234.969 C 220.808 236.257,220.501 236.792,221.415 237.461 C 222.694 238.396,224.645 238.124,225.973 236.827 C 227.658 235.179,230.132 234.843,232.328 235.963 C 233.591 236.607,234.710 236.800,237.193 236.800 L 240.417 236.800 242.496 234.743 C 247.355 229.935,254.092 230.853,250.947 235.895 C 249.447 238.298,244.632 239.367,241.285 238.039 C 235.779 235.854,234.191 237.553,238.115 241.431 C 241.361 244.639,241.729 244.800,245.812 244.800 C 249.702 244.800,250.872 245.327,252.372 247.754 C 254.257 250.804,250.976 253.234,247.454 251.398 C 246.824 251.069,246.092 250.800,245.826 250.800 C 245.561 250.800,244.635 250.193,243.768 249.451 C 238.980 245.352,230.276 245.179,229.013 249.158 C 228.724 250.071,227.144 250.800,225.458 250.800 C 222.859 250.800,221.877 252.867,224.005 253.857 C 225.132 254.381,228.283 253.836,230.887 252.667 C 233.304 251.583,235.132 251.830,237.264 253.529 C 237.721 253.894,239.194 254.051,242.008 254.034 C 246.607 254.007,247.764 254.660,248.827 257.881 C 249.949 261.280,243.101 261.340,239.265 257.964 C 235.913 255.014,232.812 254.115,230.777 255.503 C 225.608 259.027,225.706 260.397,231.126 260.402 C 234.355 260.405,236.219 261.022,237.210 262.415 C 239.884 266.170,233.437 268.321,229.866 264.866 C 225.928 261.054,215.261 261.943,215.213 266.086 C 215.195 267.565,215.970 267.875,220.200 268.078 C 227.134 268.411,230.582 271.637,226.346 273.828 C 224.315 274.878,221.515 274.378,219.564 272.615 C 217.012 270.309,211.363 272.108,210.413 275.528 C 209.775 277.828,209.869 321.917,210.516 323.200 C 212.039 326.224,218.328 327.084,222.541 324.844 C 228.585 321.631,233.683 326.135,229.262 330.783 C 227.367 332.775,225.799 332.924,223.501 331.331 C 220.732 329.413,214.455 329.621,214.739 331.622 C 214.918 332.881,214.794 332.796,217.254 333.342 C 223.369 334.700,222.680 343.264,216.536 342.267 C 214.782 341.982,213.200 340.986,213.200 340.166 C 213.200 336.119,207.311 332.530,207.184 336.500 C 207.175 336.775,206.911 336.526,206.596 335.947 C 206.282 335.369,205.749 334.789,205.412 334.660 C 205.075 334.531,204.799 334.104,204.799 333.713 C 204.796 332.322,203.242 330.483,200.835 329.021 L 198.395 327.539 195.709 329.494 C 191.208 332.769,190.194 335.973,191.970 341.310 C 194.800 349.813,185.640 352.739,181.983 344.500 C 181.171 342.670,180.574 342.462,178.147 343.158 C 174.309 344.258,170.555 339.199,172.745 335.878 C 173.512 334.715,177.301 332.000,178.158 332.000 C 180.469 332.000,179.934 330.820,177.600 330.768 C 173.717 330.683,173.123 330.794,171.891 331.830 C 167.418 335.594,160.721 331.226,163.385 326.281 C 165.136 323.029,167.794 322.215,171.200 323.889 C 175.669 326.086,181.893 325.309,184.158 322.271 C 185.140 320.955,185.714 279.393,184.797 275.991 C 184.146 273.572,178.008 271.134,176.462 272.681 C 175.562 273.581,172.900 274.800,171.835 274.800 C 167.377 274.800,165.122 267.989,168.689 265.300 C 169.267 264.865,169.195 264.800,168.125 264.800 C 167.322 264.800,166.705 265.090,166.341 265.639 C 165.031 267.611,160.594 267.126,158.488 264.781 C 157.216 263.364,156.873 263.200,155.184 263.200 C 151.211 263.200,148.400 260.990,148.400 257.866 C 148.400 256.761,147.895 256.158,144.897 253.678 C 141.896 251.196,142.795 246.079,146.596 244.002 C 147.599 243.454,148.240 242.947,148.022 242.874 C 147.147 242.582,144.800 238.846,144.801 237.746 C 144.805 235.310,146.909 233.134,150.364 231.995 L 152.200 231.390 152.099 229.195 C 151.941 225.763,153.469 223.441,156.400 222.661 C 157.811 222.285,158.506 221.659,159.800 219.600 C 161.170 217.420,161.711 216.993,163.880 216.381 C 165.751 215.853,166.184 215.441,167.748 212.702 C 170.157 208.482,176.800 209.174,176.800 213.646 C 176.800 215.358,180.363 214.802,183.077 212.668 C 183.951 211.980,184.021 211.705,183.791 209.853 C 183.263 205.593,188.524 201.613,191.461 204.050 M187.600 215.930 C 187.600 218.337,191.373 219.931,192.276 217.907 C 192.619 217.139,192.479 216.858,191.283 215.907 C 189.357 214.376,187.600 214.387,187.600 215.930 M176.622 216.623 C 176.085 219.488,177.461 221.205,180.286 221.194 C 181.754 221.188,181.770 221.173,180.818 220.691 C 180.147 220.352,179.595 219.477,179.078 217.933 C 178.153 215.174,177.008 214.563,176.622 216.623 M226.800 217.772 C 226.800 218.476,226.551 218.780,225.900 218.872 C 224.968 219.004,224.283 221.200,225.173 221.200 C 225.408 221.200,225.600 220.750,225.600 220.200 C 225.600 219.487,225.816 219.200,226.355 219.200 C 226.887 219.200,227.161 218.847,227.285 218.000 C 227.382 217.340,227.313 216.800,227.131 216.800 C 226.949 216.800,226.800 217.237,226.800 217.772 M183.487 222.646 C 183.151 222.983,184.327 224.743,185.890 226.240 C 187.548 227.828,188.684 227.042,188.230 224.621 C 187.887 222.793,184.677 221.456,183.487 222.646 M222.600 229.200 C 222.464 229.420,222.023 229.600,221.619 229.600 C 221.011 229.600,220.400 230.318,220.400 231.033 C 220.400 231.125,221.030 231.200,221.800 231.200 C 223.089 231.200,223.200 231.105,223.200 230.000 C 223.200 228.753,223.022 228.517,222.600 229.200 M154.625 233.321 C 155.359 235.233,158.953 235.605,159.297 233.804 C 159.486 232.817,159.445 232.800,156.957 232.800 C 155.041 232.800,154.474 232.927,154.625 233.321 M208.229 246.080 C 207.751 246.762,207.724 247.031,208.106 247.274 C 209.286 248.024,210.600 247.261,210.216 246.050 C 209.868 244.953,209.009 244.966,208.229 246.080 M158.400 246.679 C 153.574 248.486,152.166 250.329,154.320 252.023 C 155.889 253.257,162.265 251.903,164.444 249.873 L 165.267 249.107 163.333 248.005 C 161.262 246.825,159.370 246.316,158.400 246.679 M216.467 249.279 C 217.941 250.635,219.560 251.404,219.993 250.953 C 221.201 249.698,220.615 249.001,218.250 248.879 C 216.299 248.778,215.996 248.846,216.467 249.279 M208.411 258.785 C 207.904 259.105,207.916 259.193,208.492 259.414 C 209.282 259.717,210.112 259.305,209.783 258.772 C 209.495 258.307,209.162 258.310,208.411 258.785 M197.879 260.596 C 197.482 261.152,196.547 261.862,195.802 262.173 C 194.518 262.710,194.470 262.801,194.887 263.906 C 195.989 266.825,198.773 267.261,200.949 264.856 C 201.360 264.402,202.342 263.817,203.132 263.557 C 204.423 263.131,205.952 261.831,205.987 261.131 C 206.051 259.824,198.772 259.343,197.879 260.596 M176.400 265.400 C 177.020 266.147,177.251 266.148,178.224 265.413 C 178.950 264.863,178.900 264.825,177.451 264.813 C 176.119 264.802,175.972 264.884,176.400 265.400 M212.467 268.213 C 212.071 269.081,212.112 269.200,212.809 269.200 C 213.325 269.200,213.600 268.931,213.600 268.424 C 213.600 267.230,212.969 267.112,212.467 268.213 M182.813 338.713 C 182.824 340.811,182.874 340.936,183.413 340.224 C 184.187 339.200,184.179 336.954,183.400 336.655 C 182.909 336.467,182.802 336.840,182.813 338.713 M210.500 340.193 C 210.885 340.527,211.360 340.800,211.557 340.800 C 212.152 340.800,212.405 342.587,212.007 343.975 C 210.639 348.745,206.025 350.310,203.985 346.695 C 202.637 344.308,203.584 340.141,205.932 338.125 L 206.951 337.250 208.375 338.418 C 209.159 339.061,210.115 339.859,210.500 340.193 " stroke="none" fill="#19256f" fill-rule="evenodd"></path><path id="path1" d="M190.983 1.288 C 190.652 2.402,190.273 2.688,188.189 3.401 C 186.863 3.854,185.107 4.639,184.287 5.146 C 182.965 5.963,181.930 6.123,175.099 6.567 C 168.441 7.000,167.211 7.185,166.000 7.932 C 164.919 8.600,163.969 8.797,161.826 8.799 C 160.301 8.799,158.051 9.057,156.826 9.371 C 155.602 9.685,151.537 10.099,147.794 10.290 C 141.518 10.610,140.886 10.713,139.683 11.602 C 138.492 12.482,137.848 12.592,132.289 12.861 C 124.692 13.229,123.257 13.437,120.893 14.513 C 118.817 15.457,116.808 15.701,105.217 16.418 C 98.091 16.858,97.310 16.981,95.972 17.866 C 94.476 18.856,93.950 18.933,82.600 19.816 C 80.840 19.954,78.905 20.253,78.300 20.481 L 77.200 20.897 77.200 49.524 L 77.200 78.150 78.093 79.453 C 79.544 81.571,80.229 81.716,90.200 82.022 C 100.914 82.350,102.734 82.572,105.294 83.857 C 106.632 84.528,108.393 84.927,111.294 85.216 C 117.317 85.814,119.419 86.262,121.308 87.350 C 122.343 87.946,124.009 88.435,125.600 88.609 C 128.154 88.888,129.973 89.549,131.240 90.656 C 131.592 90.964,133.292 91.486,135.018 91.816 C 136.959 92.187,138.850 92.853,139.978 93.562 C 140.980 94.193,142.520 94.934,143.400 95.210 C 144.280 95.485,145.498 96.061,146.108 96.488 C 146.717 96.916,148.320 97.699,149.671 98.228 C 151.021 98.757,152.419 99.455,152.776 99.779 C 153.134 100.103,154.493 100.839,155.796 101.415 C 157.099 101.991,158.682 102.831,159.313 103.281 C 159.945 103.731,161.492 104.598,162.751 105.207 C 164.009 105.817,166.470 107.391,168.220 108.705 C 169.969 110.019,171.817 111.224,172.328 111.382 C 172.838 111.541,174.818 112.927,176.728 114.462 C 178.637 115.997,181.227 117.802,182.483 118.473 C 184.087 119.331,186.348 121.328,190.083 125.185 C 197.913 133.273,197.178 133.248,204.751 125.685 C 211.910 118.535,215.388 115.509,217.600 114.505 C 218.590 114.055,220.390 112.768,221.600 111.644 C 222.810 110.520,224.961 109.044,226.380 108.363 C 227.799 107.682,229.667 106.520,230.531 105.781 C 231.395 105.041,233.564 103.679,235.351 102.753 C 237.138 101.827,239.140 100.674,239.800 100.190 C 240.460 99.706,242.500 98.933,244.332 98.471 C 246.221 97.996,248.460 97.105,249.501 96.416 C 250.511 95.747,251.599 95.200,251.918 95.200 C 252.238 95.200,253.872 94.587,255.550 93.837 C 257.227 93.087,259.680 92.261,261.000 92.000 C 262.320 91.740,264.120 91.112,265.000 90.605 C 267.152 89.366,268.989 88.923,274.200 88.386 C 277.307 88.066,279.223 87.643,280.720 86.945 C 281.886 86.402,283.686 85.878,284.720 85.780 C 294.390 84.866,295.262 84.727,297.363 83.766 C 299.365 82.849,300.310 82.726,308.278 82.342 C 322.633 81.652,321.240 85.106,321.106 50.532 L 321.000 23.264 320.000 22.194 C 318.430 20.514,317.274 20.120,313.200 19.875 C 302.568 19.234,299.026 18.777,296.944 17.774 C 295.331 16.998,294.039 16.741,290.944 16.585 C 278.736 15.967,275.045 15.539,271.909 14.378 C 269.169 13.363,268.103 13.205,262.509 12.982 C 256.040 12.724,253.926 12.358,252.699 11.286 C 252.183 10.836,250.437 10.583,246.099 10.329 C 242.855 10.140,239.030 9.786,237.600 9.544 C 236.170 9.302,233.290 8.981,231.200 8.830 C 228.317 8.622,227.062 8.345,226.000 7.680 C 224.910 6.997,223.980 6.801,221.800 6.795 C 215.063 6.776,209.513 6.049,207.885 4.971 C 207.035 4.409,205.371 3.791,204.188 3.598 C 201.416 3.147,200.592 2.683,199.938 1.205 L 199.405 -0.000 195.385 -0.000 L 191.365 -0.000 190.983 1.288 M152.918 31.609 C 155.472 31.597,156.800 32.828,156.800 35.208 C 156.800 39.047,155.091 39.974,152.119 37.748 C 149.408 35.717,147.210 35.849,146.429 38.089 C 145.617 40.419,145.900 56.242,146.800 58.800 C 148.404 63.361,147.537 64.800,143.184 64.800 C 140.890 64.800,140.252 64.652,139.561 63.961 C 138.670 63.070,138.672 62.830,139.608 58.400 C 140.236 55.430,139.987 38.550,139.298 37.333 C 138.615 36.126,136.912 35.854,134.787 36.611 C 133.804 36.960,132.074 37.249,130.943 37.252 C 127.520 37.261,127.328 37.685,127.076 45.800 C 126.655 59.386,123.783 63.944,114.375 65.960 C 111.758 66.520,106.846 64.614,104.216 62.016 C 100.572 58.417,99.728 54.962,99.452 42.509 C 99.204 31.264,99.088 31.600,103.213 31.600 C 107.167 31.600,107.001 31.050,106.853 43.693 L 106.723 54.665 108.167 56.921 C 109.950 59.708,110.489 60.004,113.906 60.067 C 117.363 60.131,117.974 59.784,119.420 56.929 C 121.054 53.704,121.448 40.102,120.030 35.902 C 118.986 32.812,118.975 32.937,120.380 32.210 C 121.858 31.446,124.431 31.436,126.899 32.185 C 128.616 32.706,128.949 32.694,130.354 32.065 C 131.720 31.453,133.071 31.384,141.455 31.493 C 146.705 31.562,151.863 31.614,152.918 31.609 M166.972 34.800 C 167.545 35.790,168.561 37.770,169.229 39.200 C 173.655 48.677,175.000 51.146,176.086 51.787 L 177.219 52.456 178.206 50.225 C 178.748 48.998,179.630 47.321,180.164 46.497 C 180.698 45.674,181.513 43.712,181.974 42.137 C 185.366 30.549,190.263 28.886,191.220 38.997 C 191.420 41.117,191.694 43.028,191.828 43.245 C 191.962 43.461,192.224 46.497,192.412 49.991 C 192.700 55.371,192.909 56.736,193.776 58.903 C 195.124 62.273,195.098 63.251,193.638 64.114 C 191.748 65.231,189.059 65.020,187.506 63.633 L 186.200 62.466 185.979 57.533 C 185.723 51.833,185.527 51.200,184.021 51.200 C 183.079 51.200,182.857 51.437,182.425 52.900 C 182.149 53.835,181.600 55.140,181.206 55.800 C 180.812 56.460,180.080 58.170,179.580 59.600 C 177.608 65.232,173.689 65.780,172.192 60.633 C 171.852 59.462,170.589 57.008,169.387 55.180 C 168.184 53.352,167.196 51.663,167.191 51.428 C 167.127 48.552,165.011 56.403,165.006 59.533 C 164.999 63.856,164.390 64.800,161.610 64.800 C 158.420 64.800,157.333 62.735,158.636 59.150 C 159.010 58.122,159.410 55.090,159.607 51.800 C 159.801 48.562,160.207 45.462,160.571 44.450 C 160.958 43.374,161.200 41.381,161.200 39.276 C 161.200 32.177,164.133 29.903,166.972 34.800 M204.892 206.100 C 204.097 206.652,203.053 208.084,202.193 209.800 C 201.225 211.733,200.344 212.889,199.349 213.534 C 198.017 214.397,197.925 214.581,198.149 215.934 C 198.282 216.740,198.393 226.877,198.396 238.461 L 198.400 259.521 200.900 259.788 C 203.630 260.080,206.008 260.707,205.987 261.131 C 205.952 261.831,204.423 263.131,203.132 263.557 C 202.342 263.817,201.360 264.402,200.949 264.856 C 200.538 265.310,199.689 265.947,199.062 266.271 C 198.176 266.729,197.976 267.054,198.161 267.730 C 198.441 268.753,198.479 326.116,198.200 326.880 C 198.084 327.197,199.031 327.996,200.629 328.930 C 203.193 330.428,204.795 332.266,204.799 333.713 C 204.799 334.104,205.075 334.531,205.412 334.660 C 205.749 334.789,206.282 335.369,206.596 335.947 C 206.911 336.526,207.175 336.775,207.184 336.500 C 207.311 332.530,213.200 336.119,213.200 340.166 C 213.200 340.986,214.782 341.982,216.536 342.267 C 222.680 343.264,223.369 334.700,217.254 333.342 C 214.794 332.796,214.918 332.881,214.739 331.622 C 214.455 329.621,220.732 329.413,223.501 331.331 C 225.799 332.924,227.367 332.775,229.262 330.783 C 233.683 326.135,228.585 321.631,222.541 324.844 C 218.328 327.084,212.039 326.224,210.516 323.200 C 209.869 321.917,209.775 277.828,210.413 275.528 C 211.363 272.108,217.012 270.309,219.564 272.615 C 221.515 274.378,224.315 274.878,226.346 273.828 C 230.582 271.637,227.134 268.411,220.200 268.078 C 215.970 267.875,215.195 267.565,215.213 266.086 C 215.261 261.943,225.928 261.054,229.866 264.866 C 233.437 268.321,239.884 266.170,237.210 262.415 C 236.219 261.022,234.355 260.405,231.126 260.402 C 225.706 260.397,225.608 259.027,230.777 255.503 C 232.812 254.115,235.913 255.014,239.265 257.964 C 243.101 261.340,249.949 261.280,248.827 257.881 C 247.764 254.660,246.607 254.007,242.008 254.034 C 239.194 254.051,237.721 253.894,237.264 253.529 C 235.132 251.830,233.304 251.583,230.887 252.667 C 228.283 253.836,225.132 254.381,224.005 253.857 C 221.877 252.867,222.859 250.800,225.458 250.800 C 227.144 250.800,228.724 250.071,229.013 249.158 C 230.276 245.179,238.980 245.352,243.768 249.451 C 244.635 250.193,245.561 250.800,245.826 250.800 C 246.092 250.800,246.824 251.069,247.454 251.398 C 250.976 253.234,254.257 250.804,252.372 247.754 C 250.872 245.327,249.702 244.800,245.812 244.800 C 241.729 244.800,241.361 244.639,238.115 241.431 C 234.191 237.553,235.779 235.854,241.285 238.039 C 245.724 239.800,250.860 237.790,251.749 233.944 C 251.959 233.034,251.805 232.799,250.636 232.244 C 247.898 230.944,245.632 231.640,242.496 234.743 L 240.417 236.800 237.193 236.800 C 234.710 236.800,233.591 236.607,232.328 235.963 C 230.132 234.843,227.658 235.179,225.973 236.827 C 224.645 238.124,222.694 238.396,221.415 237.461 C 220.501 236.792,220.808 236.257,222.849 234.969 C 223.719 234.420,224.600 233.527,224.806 232.985 C 225.294 231.701,227.120 231.518,230.097 232.455 C 234.131 233.725,244.398 227.762,244.400 224.149 C 244.401 220.893,239.262 221.719,236.373 225.439 C 234.099 228.368,232.429 229.079,229.481 228.371 C 228.412 228.115,226.939 228.003,226.208 228.121 C 225.139 228.295,224.839 228.191,224.682 227.592 C 224.439 226.662,224.690 226.400,225.829 226.400 C 226.321 226.400,227.506 225.747,228.461 224.949 C 229.416 224.151,231.098 222.916,232.199 222.203 C 236.057 219.707,237.290 217.212,235.200 216.130 C 233.938 215.476,229.917 215.443,229.280 216.080 C 228.585 216.775,228.635 215.259,229.334 214.431 C 231.751 211.574,230.570 208.975,227.010 209.312 C 223.976 209.599,220.800 213.462,220.800 216.866 C 220.800 220.117,218.718 222.800,216.195 222.800 C 215.663 222.800,215.054 223.125,214.841 223.523 C 214.182 224.754,209.203 226.956,208.020 226.539 C 205.074 225.503,206.086 222.712,210.287 220.290 C 214.521 217.847,216.525 215.800,216.219 214.229 C 215.909 212.635,215.868 212.613,213.176 212.613 C 210.371 212.613,209.472 213.302,207.709 216.801 C 205.323 221.535,199.200 222.153,200.209 217.557 C 200.517 216.156,203.908 213.278,205.666 212.927 C 207.004 212.659,210.245 209.472,210.594 208.082 C 211.260 205.428,207.662 204.177,204.892 206.100 M227.285 218.000 C 227.161 218.847,226.887 219.200,226.355 219.200 C 225.816 219.200,225.600 219.487,225.600 220.200 C 225.600 220.750,225.408 221.200,225.173 221.200 C 224.283 221.200,224.968 219.004,225.900 218.872 C 226.551 218.780,226.800 218.476,226.800 217.772 C 226.800 217.237,226.949 216.800,227.131 216.800 C 227.313 216.800,227.382 217.340,227.285 218.000 M223.200 230.000 C 223.200 231.105,223.089 231.200,221.800 231.200 C 221.030 231.200,220.400 231.125,220.400 231.033 C 220.400 230.318,221.011 229.600,221.619 229.600 C 222.023 229.600,222.464 229.420,222.600 229.200 C 223.022 228.517,223.200 228.753,223.200 230.000 M210.216 246.050 C 210.600 247.261,209.286 248.024,208.106 247.274 C 207.724 247.031,207.751 246.762,208.229 246.080 C 209.009 244.966,209.868 244.953,210.216 246.050 M220.467 249.800 C 220.201 251.394,219.674 251.494,217.817 250.303 C 215.735 248.967,215.800 248.752,218.250 248.879 C 220.346 248.987,220.586 249.086,220.467 249.800 M209.783 258.772 C 210.112 259.305,209.282 259.717,208.492 259.414 C 207.916 259.193,207.904 259.105,208.411 258.785 C 209.162 258.310,209.495 258.307,209.783 258.772 M213.600 268.424 C 213.600 268.931,213.325 269.200,212.809 269.200 C 212.112 269.200,212.071 269.081,212.467 268.213 C 212.969 267.112,213.600 267.230,213.600 268.424 M205.932 338.125 C 203.584 340.141,202.637 344.308,203.985 346.695 C 206.025 350.310,210.639 348.745,212.007 343.975 C 212.405 342.587,212.152 340.800,211.557 340.800 C 211.360 340.800,210.885 340.527,210.500 340.193 C 210.115 339.859,209.159 339.061,208.375 338.418 L 206.951 337.250 205.932 338.125 " stroke="none" fill="#32c7d1" fill-rule="evenodd"></path><path id="path2" d="M0.000 200.000 L 0.000 400.000 200.000 400.000 L 400.000 400.000 400.000 200.000 L 400.000 0.000 303.200 0.000 C 226.011 0.000,206.406 0.101,206.429 0.500 C 206.509 1.895,209.195 3.297,212.512 3.674 C 214.320 3.879,216.716 4.307,217.835 4.624 C 218.954 4.941,220.664 5.203,221.635 5.207 C 222.606 5.211,224.660 5.481,226.200 5.807 C 227.740 6.133,230.144 6.400,231.542 6.400 C 232.940 6.400,235.130 6.671,236.409 7.002 C 237.687 7.334,240.323 7.788,242.266 8.013 C 250.544 8.969,251.940 9.166,254.600 9.756 C 256.140 10.098,258.930 10.557,260.800 10.777 C 269.187 11.761,271.165 12.042,273.679 12.602 C 275.152 12.931,277.222 13.202,278.279 13.205 C 279.336 13.207,281.190 13.475,282.400 13.799 C 283.610 14.123,286.940 14.578,289.800 14.810 C 292.660 15.042,296.710 15.597,298.800 16.042 C 302.820 16.898,306.720 17.400,313.616 17.948 C 318.493 18.335,320.188 18.999,321.600 21.073 L 322.600 22.542 322.600 51.441 C 322.600 85.776,323.106 83.454,315.600 83.574 C 314.390 83.593,312.516 83.877,311.436 84.204 C 310.328 84.541,307.919 84.800,305.903 84.800 C 303.721 84.800,301.141 85.098,299.267 85.566 C 297.580 85.987,294.850 86.448,293.200 86.590 C 291.550 86.732,287.680 87.458,284.600 88.203 C 281.520 88.948,277.322 89.840,275.270 90.184 C 271.570 90.805,264.324 92.784,262.837 93.580 C 262.412 93.808,260.114 94.630,257.732 95.407 C 255.349 96.184,252.500 97.253,251.400 97.781 C 248.920 98.972,244.413 100.869,241.926 101.769 C 240.895 102.141,239.385 102.976,238.571 103.623 C 237.756 104.270,236.818 104.800,236.485 104.800 C 236.152 104.800,233.870 106.150,231.413 107.800 C 228.956 109.450,226.745 110.800,226.499 110.800 C 226.254 110.800,224.556 112.018,222.727 113.506 C 220.897 114.994,218.410 116.835,217.200 117.596 C 215.990 118.358,214.820 119.193,214.600 119.452 C 214.380 119.711,213.090 120.834,211.733 121.948 C 210.377 123.062,207.587 125.725,205.533 127.866 C 196.971 136.791,197.882 136.871,187.650 126.299 C 183.346 121.851,167.260 109.925,163.055 108.066 C 162.124 107.654,160.290 106.590,158.981 105.702 C 156.399 103.952,148.151 99.595,145.120 98.381 C 144.086 97.966,141.746 96.927,139.920 96.071 C 133.223 92.932,129.446 91.625,120.000 89.181 C 119.010 88.924,116.760 88.293,115.000 87.777 C 113.240 87.261,110.450 86.718,108.800 86.570 C 107.150 86.422,104.742 85.963,103.448 85.550 C 102.154 85.138,100.264 84.797,99.248 84.794 C 98.232 84.791,96.680 84.529,95.800 84.212 C 94.669 83.804,92.331 83.630,87.828 83.618 C 81.550 83.600,79.955 83.366,77.210 82.061 C 74.719 80.877,74.812 82.095,74.806 50.660 C 74.799 15.889,74.225 18.647,81.600 17.969 C 89.680 17.227,92.704 16.799,94.147 16.196 C 95.074 15.809,98.327 15.335,102.342 15.003 C 106.004 14.699,109.900 14.172,111.000 13.830 C 112.100 13.488,113.810 13.204,114.800 13.197 C 115.790 13.191,117.860 12.916,119.400 12.585 C 122.163 11.992,125.366 11.567,132.800 10.806 C 134.890 10.593,137.500 10.137,138.600 9.793 C 139.700 9.450,142.310 8.986,144.400 8.763 C 146.490 8.540,149.739 8.196,151.620 7.999 C 153.501 7.802,155.571 7.432,156.220 7.176 C 156.869 6.920,159.110 6.563,161.200 6.382 C 166.091 5.958,170.922 5.295,173.200 4.736 C 174.190 4.493,176.837 4.075,179.082 3.808 C 182.460 3.406,183.409 3.135,184.582 2.241 C 187.741 -0.169,194.638 0.000,93.000 0.000 L 0.000 0.000 0.000 200.000 M102.412 34.530 C 101.774 35.551,101.785 50.654,102.424 52.885 C 102.631 53.605,102.800 54.585,102.800 55.061 C 102.800 56.121,104.756 59.200,105.429 59.200 C 105.787 59.200,105.823 58.802,105.567 57.700 C 105.376 56.875,105.215 51.390,105.210 45.510 L 105.200 34.821 104.078 34.240 C 103.034 33.700,102.917 33.721,102.412 34.530 M122.872 45.651 L 122.944 57.400 123.228 47.000 C 123.384 41.280,123.634 36.227,123.784 35.772 C 123.959 35.237,123.833 34.760,123.428 34.423 C 122.860 33.951,122.807 35.017,122.872 45.651 M141.475 34.500 C 140.844 34.965,140.859 35.125,141.698 36.800 C 143.054 39.506,143.084 56.352,141.739 59.263 L 140.878 61.125 142.010 62.210 L 143.142 63.294 144.169 62.267 L 145.197 61.240 144.298 59.720 C 143.283 58.002,142.727 41.604,143.533 37.168 C 144.087 34.119,143.328 33.134,141.475 34.500 M164.059 36.616 C 161.627 39.708,163.798 46.203,167.169 45.920 C 169.385 45.734,169.318 44.214,166.881 39.402 L 164.918 35.524 164.059 36.616 M185.895 38.112 C 183.605 42.460,183.764 45.656,186.351 47.228 C 188.566 48.575,188.943 49.932,188.637 55.446 C 188.302 61.471,188.486 62.400,190.016 62.400 C 190.750 62.400,191.226 62.149,191.373 61.686 C 191.717 60.601,190.943 55.255,190.335 54.518 C 189.959 54.062,189.795 52.494,189.783 49.235 C 189.765 44.313,188.576 37.605,187.538 36.566 C 187.081 36.110,186.821 36.354,185.895 38.112 M170.492 48.068 C 169.475 49.085,170.296 53.386,171.585 53.795 C 172.033 53.937,172.450 54.562,172.603 55.318 C 173.194 58.249,174.870 60.869,175.977 60.591 C 178.715 59.904,177.802 55.259,174.799 54.600 C 173.519 54.319,172.969 53.447,171.698 49.688 C 171.133 48.018,170.881 47.679,170.492 48.068 M160.736 59.697 C 160.482 61.871,160.847 62.655,161.680 61.726 C 162.283 61.054,162.279 60.898,161.618 59.627 L 160.904 58.255 160.736 59.697 M106.800 60.721 C 106.800 61.336,106.977 61.507,107.434 61.332 C 107.782 61.198,107.917 60.977,107.734 60.840 C 107.550 60.703,107.265 60.428,107.100 60.229 C 106.935 60.030,106.800 60.251,106.800 60.721 M112.665 115.400 C 114.074 115.767,116.776 116.000,119.629 116.000 C 122.193 116.000,125.260 116.190,126.445 116.423 C 127.630 116.656,129.971 116.991,131.647 117.167 C 133.323 117.344,135.303 117.800,136.047 118.180 C 136.791 118.559,139.497 119.120,142.060 119.426 C 145.223 119.803,148.296 120.499,151.621 121.591 C 154.316 122.476,157.009 123.200,157.605 123.200 C 158.201 123.200,159.325 123.632,160.102 124.159 C 160.880 124.687,162.522 125.411,163.752 125.769 C 164.982 126.126,167.206 127.044,168.694 127.808 C 170.182 128.571,171.585 129.197,171.812 129.198 C 172.245 129.200,176.539 131.834,179.600 133.976 C 180.590 134.669,182.570 135.988,184.000 136.908 C 185.430 137.828,188.124 140.070,189.987 141.890 C 191.849 143.711,193.490 145.200,193.632 145.200 C 193.774 145.200,194.569 145.740,195.400 146.400 C 197.605 148.152,198.588 147.983,201.400 145.367 C 202.720 144.139,204.565 142.578,205.500 141.899 C 206.435 141.220,207.200 140.541,207.200 140.391 C 207.200 140.006,211.749 136.477,213.565 135.453 C 215.727 134.233,219.661 131.634,220.600 130.805 C 221.040 130.417,222.120 129.871,223.000 129.592 C 223.880 129.314,225.320 128.584,226.200 127.970 C 227.080 127.355,228.610 126.642,229.600 126.384 C 230.590 126.126,232.659 125.304,234.199 124.558 C 235.738 123.811,237.411 123.200,237.916 123.200 C 238.421 123.200,240.582 122.542,242.717 121.737 C 246.708 120.233,251.568 119.222,254.877 119.208 C 256.054 119.203,257.286 118.886,258.180 118.359 C 259.209 117.752,260.746 117.417,263.703 117.157 C 265.956 116.959,268.610 116.625,269.600 116.416 C 270.590 116.206,273.200 116.021,275.400 116.003 C 277.600 115.986,280.570 115.715,282.000 115.400 C 285.218 114.692,317.646 114.540,320.099 115.221 C 322.439 115.871,322.800 116.977,322.800 123.510 C 322.800 131.361,323.989 130.714,309.198 130.915 C 296.997 131.082,295.737 131.219,288.512 133.163 C 283.143 134.607,274.934 135.316,262.282 135.429 C 252.435 135.517,250.620 135.626,249.771 136.182 L 248.778 136.833 250.003 137.864 C 251.054 138.748,251.880 138.966,255.799 139.392 C 258.802 139.718,260.741 140.132,261.452 140.597 C 263.180 141.730,287.336 141.533,289.570 140.369 C 290.443 139.914,292.604 139.405,294.645 139.173 C 296.600 138.951,299.460 138.484,301.000 138.136 C 302.540 137.788,305.510 137.387,307.600 137.245 C 309.695 137.103,311.849 136.729,312.400 136.413 C 313.686 135.676,318.975 135.621,320.648 136.327 C 322.510 137.113,322.800 138.202,322.800 144.410 L 322.800 149.982 321.719 150.690 C 320.747 151.327,319.695 151.385,311.219 151.265 C 302.396 151.141,301.686 151.185,300.000 151.958 C 298.821 152.498,297.360 152.785,295.764 152.791 C 294.424 152.796,292.444 153.068,291.364 153.396 C 290.284 153.723,288.754 153.993,287.964 153.996 C 287.174 153.998,285.644 154.284,284.564 154.632 C 280.604 155.906,271.823 156.783,262.943 156.792 L 254.487 156.800 254.224 157.847 C 254.079 158.423,254.015 158.932,254.081 158.979 C 254.146 159.025,254.830 159.527,255.600 160.094 C 258.562 162.276,284.406 162.728,292.200 160.734 C 293.080 160.509,295.140 160.071,296.777 159.761 C 298.414 159.452,300.754 158.937,301.977 158.617 C 304.467 157.967,310.464 157.491,316.859 157.436 C 322.928 157.385,322.800 157.221,322.800 164.986 C 322.800 173.421,324.289 172.575,309.193 172.717 C 299.345 172.809,296.540 172.951,295.861 173.392 C 294.340 174.379,282.170 176.407,277.794 176.403 C 276.120 176.401,274.917 176.652,273.841 177.229 C 271.873 178.284,251.352 178.454,249.787 177.428 C 249.005 176.916,247.704 176.650,246.492 176.756 C 245.987 176.800,246.184 178.642,246.763 179.292 C 246.906 179.452,248.458 179.776,250.212 180.012 C 251.965 180.248,254.300 180.775,255.400 181.185 C 263.376 184.152,285.948 184.122,293.536 181.134 C 294.860 180.612,299.087 180.087,305.627 179.630 C 309.488 179.361,311.018 179.085,312.221 178.440 C 314.842 177.035,320.080 177.219,321.631 178.769 L 322.800 179.938 322.800 185.915 C 322.800 191.300,322.720 191.994,321.994 192.916 L 321.189 193.941 308.494 194.143 C 295.927 194.344,291.151 194.665,290.011 195.385 C 288.988 196.031,282.371 197.222,277.730 197.595 C 275.272 197.792,272.137 198.158,270.765 198.406 C 269.393 198.655,265.284 198.830,261.635 198.796 C 251.231 198.697,251.926 198.617,252.073 199.900 C 252.244 201.381,254.301 202.357,257.853 202.641 C 259.364 202.762,261.680 203.252,263.000 203.730 C 266.682 205.064,283.771 205.030,286.185 203.684 C 287.056 203.198,288.313 202.800,288.979 202.800 C 291.224 202.800,298.989 201.521,300.400 200.919 C 303.990 199.387,320.693 198.693,322.021 200.021 L 322.927 200.927 322.666 214.283 C 322.434 226.203,322.323 227.841,321.632 229.519 C 321.207 230.554,320.565 233.470,320.205 236.000 C 319.846 238.530,319.383 241.251,319.176 242.046 C 318.969 242.842,318.800 243.940,318.800 244.487 C 318.800 245.034,318.350 246.327,317.800 247.362 C 317.250 248.396,316.800 249.830,316.800 250.548 C 316.800 252.725,315.983 256.435,315.169 257.954 C 314.746 258.743,314.400 259.528,314.400 259.698 C 314.400 259.869,314.058 260.772,313.639 261.704 C 313.221 262.637,312.772 264.000,312.643 264.732 C 312.513 265.465,312.063 266.502,311.642 267.037 C 311.222 267.572,310.666 268.952,310.408 270.105 C 309.805 272.793,308.512 275.977,307.607 277.000 C 307.217 277.440,306.779 278.470,306.634 279.288 C 306.488 280.107,305.965 281.277,305.472 281.888 C 304.979 282.500,304.061 283.990,303.431 285.200 C 302.801 286.410,301.973 287.760,301.589 288.200 C 301.206 288.640,300.769 289.406,300.618 289.902 C 300.468 290.398,299.931 291.298,299.426 291.902 C 298.921 292.506,297.980 293.990,297.336 295.200 C 296.692 296.410,295.869 297.760,295.507 298.200 C 293.705 300.391,291.282 303.614,289.698 305.928 C 286.458 310.660,275.467 322.250,272.000 324.591 C 271.230 325.111,269.373 326.720,267.872 328.168 C 266.372 329.616,264.958 330.800,264.729 330.800 C 264.500 330.800,263.327 331.700,262.124 332.800 C 260.920 333.900,259.778 334.800,259.586 334.800 C 259.394 334.800,258.813 335.205,258.295 335.700 C 257.377 336.577,253.330 339.245,251.241 340.351 C 250.668 340.654,249.750 341.305,249.200 341.798 C 248.650 342.291,247.300 343.202,246.200 343.822 C 245.100 344.443,243.691 345.367,243.069 345.875 C 242.447 346.384,241.686 346.800,241.377 346.800 C 241.068 346.800,239.839 347.425,238.646 348.188 C 237.452 348.952,235.694 349.883,234.738 350.257 C 233.782 350.632,232.491 351.357,231.869 351.869 C 231.247 352.381,230.514 352.800,230.240 352.800 C 229.966 352.800,228.706 353.385,227.440 354.100 C 223.340 356.416,222.613 356.761,221.796 356.781 C 221.354 356.791,220.786 357.131,220.533 357.535 C 220.281 357.939,218.663 358.764,216.937 359.369 C 215.212 359.974,213.150 360.910,212.355 361.450 C 211.560 361.990,210.210 362.541,209.355 362.673 C 208.500 362.806,206.614 363.612,205.164 364.464 C 199.287 367.921,194.337 367.646,188.338 363.529 C 187.754 363.128,186.924 362.800,186.494 362.800 C 186.064 362.800,185.102 362.395,184.356 361.900 C 183.610 361.405,182.010 360.660,180.800 360.245 C 178.144 359.333,172.761 356.716,170.215 355.099 C 167.774 353.548,166.351 352.800,165.839 352.800 C 165.521 352.800,164.753 352.375,164.131 351.855 C 163.509 351.335,162.550 350.774,162.000 350.607 C 160.794 350.243,156.837 348.133,156.000 347.409 C 155.670 347.123,154.827 346.767,154.128 346.619 C 153.428 346.470,152.646 346.096,152.390 345.787 C 152.133 345.479,150.811 344.604,149.452 343.844 C 148.092 343.083,146.656 342.104,146.260 341.667 C 145.865 341.230,145.101 340.761,144.562 340.626 C 144.024 340.491,142.524 339.575,141.229 338.590 C 139.935 337.606,138.756 336.800,138.611 336.800 C 138.290 336.800,134.631 333.869,129.764 329.714 C 129.304 329.321,128.306 328.677,127.547 328.282 C 126.125 327.542,116.403 317.881,110.399 311.241 C 108.529 309.174,106.716 307.194,106.370 306.841 C 106.023 306.488,105.313 305.480,104.792 304.600 C 104.270 303.720,103.623 302.864,103.353 302.698 C 103.083 302.531,102.455 301.721,101.957 300.898 C 101.459 300.074,100.633 298.888,100.120 298.262 C 99.607 297.636,98.711 296.151,98.129 294.962 C 97.546 293.773,96.923 292.800,96.743 292.800 C 96.563 292.800,96.028 292.039,95.553 291.108 C 95.078 290.178,94.195 288.783,93.589 288.008 C 92.984 287.234,92.185 285.657,91.814 284.505 C 91.443 283.352,90.952 282.294,90.725 282.153 C 90.497 282.013,89.866 280.893,89.323 279.665 C 88.780 278.438,87.823 276.848,87.195 276.133 C 86.482 275.321,85.953 274.162,85.785 273.042 C 85.638 272.057,84.816 269.863,83.958 268.167 C 83.101 266.471,82.400 264.630,82.400 264.074 C 82.400 263.519,81.855 262.100,81.190 260.920 C 80.328 259.393,79.854 257.830,79.542 255.488 C 79.301 253.680,78.789 251.570,78.405 250.800 C 77.238 248.463,75.200 237.804,75.200 234.042 C 75.200 233.538,74.840 232.669,74.400 232.109 C 73.799 231.345,73.599 230.483,73.597 228.646 C 73.595 227.301,73.320 224.040,72.986 221.400 C 72.471 217.335,72.379 209.049,72.384 167.291 C 72.389 114.405,72.316 116.387,74.300 115.232 C 75.521 114.521,109.866 114.671,112.665 115.400 " stroke="none" fill="#fbfbfb" fill-rule="evenodd"></path><path id="path3" d="M186.000 0.580 C 186.000 2.046,183.300 3.306,179.082 3.808 C 176.837 4.075,174.190 4.493,173.200 4.736 C 170.922 5.295,166.091 5.958,161.200 6.382 C 159.110 6.563,156.873 6.919,156.229 7.172 C 155.585 7.426,153.335 7.816,151.229 8.039 C 149.123 8.261,145.870 8.606,144.000 8.805 C 142.130 9.004,139.700 9.448,138.600 9.792 C 137.500 10.136,134.890 10.593,132.800 10.806 C 125.366 11.567,122.163 11.992,119.400 12.585 C 117.860 12.916,115.790 13.191,114.800 13.197 C 113.810 13.204,112.100 13.488,111.000 13.830 C 109.900 14.172,106.004 14.699,102.342 15.003 C 98.327 15.335,95.074 15.809,94.147 16.196 C 92.704 16.799,89.680 17.227,81.600 17.969 C 74.225 18.647,74.799 15.889,74.806 50.660 C 74.812 82.095,74.719 80.877,77.210 82.061 C 79.955 83.366,81.550 83.600,87.828 83.618 C 92.331 83.630,94.669 83.804,95.800 84.212 C 96.680 84.529,98.232 84.791,99.248 84.794 C 100.264 84.797,102.154 85.138,103.448 85.550 C 104.742 85.963,107.150 86.422,108.800 86.570 C 110.450 86.718,113.240 87.261,115.000 87.777 C 116.760 88.293,119.010 88.924,120.000 89.181 C 129.446 91.625,133.223 92.932,139.920 96.071 C 141.746 96.927,144.086 97.966,145.120 98.381 C 148.151 99.595,156.399 103.952,158.981 105.702 C 160.290 106.590,162.124 107.654,163.055 108.066 C 167.260 109.925,183.346 121.851,187.650 126.299 C 197.882 136.871,196.971 136.791,205.533 127.866 C 207.587 125.725,210.377 123.062,211.733 121.948 C 213.090 120.834,214.380 119.711,214.600 119.452 C 214.820 119.193,215.990 118.358,217.200 117.596 C 218.410 116.835,220.897 114.994,222.727 113.506 C 224.556 112.018,226.254 110.800,226.499 110.800 C 226.745 110.800,228.956 109.450,231.413 107.800 C 233.870 106.150,236.152 104.800,236.485 104.800 C 236.818 104.800,237.756 104.270,238.571 103.623 C 239.385 102.976,240.895 102.141,241.926 101.769 C 244.413 100.869,248.920 98.972,251.400 97.781 C 252.500 97.253,255.349 96.184,257.732 95.407 C 260.114 94.630,262.412 93.808,262.837 93.580 C 264.324 92.784,271.570 90.805,275.270 90.184 C 277.322 89.840,281.520 88.948,284.600 88.203 C 287.680 87.458,291.550 86.732,293.200 86.590 C 294.850 86.448,297.580 85.987,299.267 85.566 C 301.141 85.098,303.721 84.800,305.903 84.800 C 307.919 84.800,310.328 84.541,311.436 84.204 C 312.516 83.877,314.390 83.593,315.600 83.574 C 323.106 83.454,322.600 85.776,322.600 51.441 L 322.600 22.542 321.600 21.073 C 320.188 18.999,318.493 18.335,313.616 17.948 C 306.720 17.400,302.820 16.898,298.800 16.042 C 296.710 15.597,292.660 15.042,289.800 14.810 C 286.940 14.578,283.610 14.123,282.400 13.799 C 281.190 13.475,279.336 13.207,278.279 13.205 C 277.222 13.202,275.152 12.931,273.679 12.602 C 271.165 12.042,269.187 11.761,260.800 10.777 C 258.930 10.557,256.140 10.098,254.600 9.756 C 251.940 9.166,250.544 8.969,242.266 8.013 C 240.323 7.788,237.687 7.334,236.409 7.002 C 235.130 6.671,232.940 6.400,231.542 6.400 C 230.144 6.400,227.740 6.133,226.200 5.807 C 224.660 5.481,222.606 5.211,221.635 5.207 C 220.664 5.203,218.954 4.941,217.835 4.624 C 216.716 4.307,214.320 3.879,212.512 3.674 C 209.195 3.297,206.509 1.895,206.429 0.500 C 206.392 -0.135,199.600 -0.221,199.600 0.414 C 199.600 2.030,201.151 3.090,204.269 3.606 C 205.407 3.794,207.035 4.409,207.885 4.971 C 209.513 6.049,215.063 6.776,221.800 6.795 C 223.980 6.801,224.910 6.997,226.000 7.680 C 227.062 8.345,228.317 8.622,231.200 8.830 C 233.290 8.981,236.170 9.302,237.600 9.544 C 239.030 9.786,242.855 10.140,246.099 10.329 C 250.437 10.583,252.183 10.836,252.699 11.286 C 253.926 12.358,256.040 12.724,262.509 12.982 C 268.103 13.205,269.169 13.363,271.909 14.378 C 275.045 15.539,278.736 15.967,290.944 16.585 C 294.039 16.741,295.331 16.998,296.944 17.774 C 299.026 18.777,302.568 19.234,313.200 19.875 C 317.274 20.120,318.430 20.514,320.000 22.194 L 321.000 23.264 321.106 50.532 C 321.240 85.106,322.633 81.652,308.278 82.342 C 300.310 82.726,299.365 82.849,297.363 83.766 C 295.262 84.727,294.390 84.866,284.720 85.780 C 283.686 85.878,281.886 86.402,280.720 86.945 C 279.223 87.643,277.307 88.066,274.200 88.386 C 268.989 88.923,267.152 89.366,265.000 90.605 C 264.120 91.112,262.320 91.740,261.000 92.000 C 259.680 92.261,257.227 93.087,255.550 93.837 C 253.872 94.587,252.238 95.200,251.918 95.200 C 251.599 95.200,250.511 95.747,249.501 96.416 C 248.460 97.105,246.221 97.996,244.332 98.471 C 242.500 98.933,240.460 99.706,239.800 100.190 C 239.140 100.674,237.138 101.827,235.351 102.753 C 233.564 103.679,231.395 105.041,230.531 105.781 C 229.667 106.520,227.799 107.682,226.380 108.363 C 224.961 109.044,222.810 110.520,221.600 111.644 C 220.390 112.768,218.590 114.055,217.600 114.505 C 215.388 115.509,211.910 118.535,204.751 125.685 C 197.178 133.248,197.913 133.273,190.083 125.185 C 186.348 121.328,184.087 119.331,182.483 118.473 C 181.227 117.802,178.637 115.997,176.728 114.462 C 174.818 112.927,172.838 111.541,172.328 111.382 C 171.817 111.224,169.969 110.019,168.220 108.705 C 166.470 107.391,164.009 105.817,162.751 105.207 C 161.492 104.598,159.945 103.731,159.313 103.281 C 158.682 102.831,157.099 101.991,155.796 101.415 C 154.493 100.839,153.134 100.103,152.776 99.779 C 152.419 99.455,151.021 98.757,149.671 98.228 C 148.320 97.699,146.717 96.916,146.108 96.488 C 145.498 96.061,144.280 95.485,143.400 95.210 C 142.520 94.934,140.980 94.193,139.978 93.562 C 138.850 92.853,136.959 92.187,135.018 91.816 C 133.292 91.486,131.592 90.964,131.240 90.656 C 129.973 89.549,128.154 88.888,125.600 88.609 C 124.009 88.435,122.343 87.946,121.308 87.350 C 119.419 86.262,117.317 85.814,111.294 85.216 C 108.393 84.927,106.632 84.528,105.294 83.857 C 102.734 82.572,100.914 82.350,90.200 82.022 C 80.229 81.716,79.544 81.571,78.093 79.453 L 77.200 78.150 77.200 49.524 L 77.200 20.897 78.300 20.481 C 78.905 20.253,80.840 19.954,82.600 19.816 C 93.950 18.933,94.476 18.856,95.972 17.866 C 97.310 16.981,98.091 16.858,105.217 16.418 C 116.808 15.701,118.817 15.457,120.893 14.513 C 123.257 13.437,124.692 13.229,132.289 12.861 C 137.848 12.592,138.492 12.482,139.683 11.602 C 140.886 10.713,141.518 10.610,147.794 10.290 C 151.537 10.099,155.602 9.685,156.826 9.371 C 158.051 9.057,160.301 8.799,161.826 8.799 C 163.969 8.797,164.919 8.600,166.000 7.932 C 167.207 7.187,168.446 6.999,175.000 6.566 C 182.521 6.069,182.628 6.049,185.329 4.632 C 186.830 3.844,188.405 3.200,188.829 3.200 C 189.835 3.200,191.200 1.818,191.200 0.800 C 191.200 0.082,190.933 0.000,188.600 0.000 C 186.596 0.000,186.000 0.133,186.000 0.580 M130.354 32.065 C 128.949 32.694,128.616 32.706,126.899 32.185 C 124.431 31.436,121.858 31.446,120.380 32.210 C 118.975 32.937,118.986 32.812,120.030 35.902 C 121.448 40.102,121.054 53.704,119.420 56.929 C 117.974 59.784,117.363 60.131,113.906 60.067 C 110.489 60.004,109.950 59.708,108.167 56.921 L 106.723 54.665 106.853 43.693 C 107.001 31.050,107.167 31.600,103.213 31.600 C 99.088 31.600,99.204 31.264,99.452 42.509 C 99.728 54.962,100.572 58.417,104.216 62.016 C 106.846 64.614,111.758 66.520,114.375 65.960 C 123.783 63.944,126.655 59.386,127.076 45.800 C 127.328 37.685,127.520 37.261,130.943 37.252 C 132.074 37.249,133.804 36.960,134.787 36.611 C 136.912 35.854,138.615 36.126,139.298 37.333 C 139.987 38.550,140.236 55.430,139.608 58.400 C 138.672 62.830,138.670 63.070,139.561 63.961 C 140.252 64.652,140.890 64.800,143.184 64.800 C 147.537 64.800,148.404 63.361,146.800 58.800 C 145.900 56.242,145.617 40.419,146.429 38.089 C 147.210 35.849,149.408 35.717,152.119 37.748 C 155.091 39.974,156.800 39.047,156.800 35.208 C 156.800 32.828,155.472 31.597,152.918 31.609 C 151.863 31.614,146.705 31.562,141.455 31.493 C 133.071 31.384,131.720 31.453,130.354 32.065 M163.924 32.309 C 162.187 32.534,161.200 35.060,161.200 39.276 C 161.200 41.381,160.958 43.374,160.571 44.450 C 160.207 45.462,159.801 48.562,159.607 51.800 C 159.410 55.090,159.010 58.122,158.636 59.150 C 157.333 62.735,158.420 64.800,161.610 64.800 C 164.390 64.800,164.999 63.856,165.006 59.533 C 165.011 56.403,167.127 48.552,167.191 51.428 C 167.196 51.663,168.184 53.352,169.387 55.180 C 170.589 57.008,171.852 59.462,172.192 60.633 C 173.689 65.780,177.608 65.232,179.580 59.600 C 180.080 58.170,180.812 56.460,181.206 55.800 C 181.600 55.140,182.149 53.835,182.425 52.900 C 182.857 51.437,183.079 51.200,184.021 51.200 C 185.527 51.200,185.723 51.833,185.979 57.533 L 186.200 62.466 187.506 63.633 C 189.059 65.020,191.748 65.231,193.638 64.114 C 195.098 63.251,195.124 62.273,193.776 58.903 C 192.909 56.736,192.700 55.371,192.412 49.991 C 192.224 46.497,191.962 43.461,191.828 43.245 C 191.694 43.028,191.420 41.117,191.220 38.997 C 190.263 28.886,185.366 30.549,181.974 42.137 C 181.513 43.712,180.698 45.674,180.164 46.497 C 179.630 47.321,178.748 48.998,178.206 50.225 L 177.219 52.456 176.086 51.787 C 175.000 51.146,173.655 48.677,169.229 39.200 C 166.513 33.384,165.526 32.102,163.924 32.309 M105.210 45.510 C 105.215 51.390,105.376 56.875,105.567 57.700 C 105.823 58.802,105.787 59.200,105.429 59.200 C 104.756 59.200,102.800 56.121,102.800 55.061 C 102.800 54.585,102.631 53.605,102.424 52.885 C 102.218 52.165,102.008 47.936,101.959 43.488 C 101.855 34.197,102.082 33.208,104.078 34.240 L 105.200 34.821 105.210 45.510 M123.784 35.772 C 123.634 36.227,123.384 41.280,123.228 47.000 L 122.944 57.400 122.872 45.651 C 122.807 35.017,122.860 33.951,123.428 34.423 C 123.833 34.760,123.959 35.237,123.784 35.772 M143.716 34.526 C 143.827 34.815,143.745 36.004,143.533 37.168 C 142.727 41.604,143.283 58.002,144.298 59.720 L 145.197 61.240 144.169 62.267 L 143.142 63.294 142.010 62.210 L 140.878 61.125 141.739 59.263 C 143.084 56.352,143.054 39.506,141.698 36.800 C 140.859 35.125,140.844 34.965,141.475 34.500 C 142.358 33.849,143.461 33.861,143.716 34.526 M168.722 44.540 C 168.570 46.106,166.367 46.550,164.849 45.320 C 163.103 43.905,162.608 38.460,164.059 36.616 L 164.918 35.524 166.881 39.402 C 168.260 42.125,168.808 43.654,168.722 44.540 M188.923 40.855 C 189.507 43.447,189.771 46.027,189.783 49.235 C 189.795 52.494,189.959 54.062,190.335 54.518 C 190.943 55.255,191.717 60.601,191.373 61.686 C 191.226 62.149,190.750 62.400,190.016 62.400 C 188.486 62.400,188.302 61.471,188.637 55.446 C 188.943 49.932,188.566 48.575,186.351 47.228 C 183.764 45.656,183.605 42.460,185.895 38.112 C 187.321 35.406,187.793 35.834,188.923 40.855 M173.010 53.069 C 173.417 53.932,173.989 54.422,174.799 54.600 C 177.802 55.259,178.715 59.904,175.977 60.591 C 174.870 60.869,173.194 58.249,172.603 55.318 C 172.450 54.562,172.033 53.937,171.585 53.795 C 170.296 53.386,169.475 49.085,170.492 48.068 C 170.881 47.679,171.133 48.018,171.698 49.688 C 172.091 50.850,172.681 52.371,173.010 53.069 M161.680 61.726 C 160.847 62.655,160.482 61.871,160.736 59.697 L 160.904 58.255 161.618 59.627 C 162.279 60.898,162.283 61.054,161.680 61.726 M107.734 60.840 C 107.917 60.977,107.782 61.198,107.434 61.332 C 106.977 61.507,106.800 61.336,106.800 60.721 C 106.800 60.251,106.935 60.030,107.100 60.229 C 107.265 60.428,107.550 60.703,107.734 60.840 M74.300 115.232 C 72.316 116.387,72.389 114.405,72.384 167.291 C 72.379 209.049,72.471 217.335,72.986 221.400 C 73.320 224.040,73.595 227.301,73.597 228.646 C 73.599 230.483,73.799 231.345,74.400 232.109 C 74.840 232.669,75.200 233.538,75.200 234.042 C 75.200 237.804,77.238 248.463,78.405 250.800 C 78.789 251.570,79.301 253.680,79.542 255.488 C 79.854 257.830,80.328 259.393,81.190 260.920 C 81.855 262.100,82.400 263.519,82.400 264.074 C 82.400 264.630,83.101 266.471,83.958 268.167 C 84.816 269.863,85.638 272.057,85.785 273.042 C 85.953 274.162,86.482 275.321,87.195 276.133 C 87.823 276.848,88.780 278.438,89.323 279.665 C 89.866 280.893,90.497 282.013,90.725 282.153 C 90.952 282.294,91.443 283.352,91.814 284.505 C 92.185 285.657,92.984 287.234,93.589 288.008 C 94.195 288.783,95.078 290.178,95.553 291.108 C 96.028 292.039,96.563 292.800,96.743 292.800 C 96.923 292.800,97.546 293.773,98.129 294.962 C 98.711 296.151,99.607 297.636,100.120 298.262 C 100.633 298.888,101.459 300.074,101.957 300.898 C 102.455 301.721,103.083 302.531,103.353 302.698 C 103.623 302.864,104.270 303.720,104.792 304.600 C 105.313 305.480,106.023 306.488,106.370 306.841 C 106.716 307.194,108.529 309.174,110.399 311.241 C 116.403 317.881,126.125 327.542,127.547 328.282 C 128.306 328.677,129.304 329.321,129.764 329.714 C 134.631 333.869,138.290 336.800,138.611 336.800 C 138.756 336.800,139.935 337.606,141.229 338.590 C 142.524 339.575,144.024 340.491,144.562 340.626 C 145.101 340.761,145.865 341.230,146.260 341.667 C 146.656 342.104,148.092 343.083,149.452 343.844 C 150.811 344.604,152.133 345.479,152.390 345.787 C 152.646 346.096,153.428 346.470,154.128 346.619 C 154.827 346.767,155.670 347.123,156.000 347.409 C 156.837 348.133,160.794 350.243,162.000 350.607 C 162.550 350.774,163.509 351.335,164.131 351.855 C 164.753 352.375,165.521 352.800,165.839 352.800 C 166.351 352.800,167.774 353.548,170.215 355.099 C 172.761 356.716,178.144 359.333,180.800 360.245 C 182.010 360.660,183.610 361.405,184.356 361.900 C 185.102 362.395,186.064 362.800,186.494 362.800 C 186.924 362.800,187.754 363.128,188.338 363.529 C 194.337 367.646,199.287 367.921,205.164 364.464 C 206.614 363.612,208.500 362.806,209.355 362.673 C 210.210 362.541,211.560 361.990,212.355 361.450 C 213.150 360.910,215.212 359.974,216.937 359.369 C 218.663 358.764,220.281 357.939,220.533 357.535 C 220.786 357.131,221.354 356.791,221.796 356.781 C 222.613 356.761,223.340 356.416,227.440 354.100 C 228.706 353.385,229.966 352.800,230.240 352.800 C 230.514 352.800,231.247 352.381,231.869 351.869 C 232.491 351.357,233.782 350.632,234.738 350.257 C 235.694 349.883,237.452 348.952,238.646 348.188 C 239.839 347.425,241.068 346.800,241.377 346.800 C 241.686 346.800,242.447 346.384,243.069 345.875 C 243.691 345.367,245.100 344.443,246.200 343.822 C 247.300 343.202,248.650 342.291,249.200 341.798 C 249.750 341.305,250.668 340.654,251.241 340.351 C 253.330 339.245,257.377 336.577,258.295 335.700 C 258.813 335.205,259.394 334.800,259.586 334.800 C 259.778 334.800,260.920 333.900,262.124 332.800 C 263.327 331.700,264.500 330.800,264.729 330.800 C 264.958 330.800,266.372 329.616,267.872 328.168 C 269.373 326.720,271.230 325.111,272.000 324.591 C 275.467 322.250,286.458 310.660,289.698 305.928 C 291.282 303.614,293.705 300.391,295.507 298.200 C 295.869 297.760,296.692 296.410,297.336 295.200 C 297.980 293.990,298.921 292.506,299.426 291.902 C 299.931 291.298,300.468 290.398,300.618 289.902 C 300.769 289.406,301.206 288.640,301.589 288.200 C 301.973 287.760,302.801 286.410,303.431 285.200 C 304.061 283.990,304.979 282.500,305.472 281.888 C 305.965 281.277,306.488 280.107,306.634 279.288 C 306.779 278.470,307.217 277.440,307.607 277.000 C 308.512 275.977,309.805 272.793,310.408 270.105 C 310.666 268.952,311.222 267.572,311.642 267.037 C 312.063 266.502,312.513 265.465,312.643 264.732 C 312.772 264.000,313.221 262.637,313.639 261.704 C 314.058 260.772,314.400 259.869,314.400 259.698 C 314.400 259.528,314.746 258.743,315.169 257.954 C 315.983 256.435,316.800 252.725,316.800 250.548 C 316.800 249.830,317.250 248.396,317.800 247.362 C 318.350 246.327,318.800 245.034,318.800 244.487 C 318.800 243.940,318.969 242.842,319.176 242.046 C 319.383 241.251,319.846 238.530,320.205 236.000 C 320.565 233.470,321.207 230.554,321.632 229.519 C 322.323 227.841,322.434 226.203,322.666 214.283 L 322.927 200.927 322.021 200.021 C 320.693 198.693,303.990 199.387,300.400 200.919 C 298.989 201.521,291.224 202.800,288.979 202.800 C 288.313 202.800,287.056 203.198,286.185 203.684 C 283.771 205.030,266.682 205.064,263.000 203.730 C 261.680 203.252,259.364 202.762,257.853 202.641 C 254.301 202.357,252.244 201.381,252.073 199.900 C 251.926 198.617,251.231 198.697,261.635 198.796 C 265.284 198.830,269.393 198.655,270.765 198.406 C 272.137 198.158,275.272 197.792,277.730 197.595 C 282.371 197.222,288.988 196.031,290.011 195.385 C 291.151 194.665,295.927 194.344,308.494 194.143 L 321.189 193.941 321.994 192.916 C 322.720 191.994,322.800 191.300,322.800 185.915 L 322.800 179.938 321.631 178.769 C 320.080 177.219,314.842 177.035,312.221 178.440 C 311.018 179.085,309.488 179.361,305.627 179.630 C 299.087 180.087,294.860 180.612,293.536 181.134 C 285.948 184.122,263.376 184.152,255.400 181.185 C 254.300 180.775,251.965 180.248,250.212 180.012 C 248.458 179.776,246.906 179.452,246.763 179.292 C 246.184 178.642,245.987 176.800,246.492 176.756 C 247.704 176.650,249.005 176.916,249.787 177.428 C 251.352 178.454,271.873 178.284,273.841 177.229 C 274.917 176.652,276.120 176.401,277.794 176.403 C 282.170 176.407,294.340 174.379,295.861 173.392 C 296.540 172.951,299.345 172.809,309.193 172.717 C 324.289 172.575,322.800 173.421,322.800 164.986 C 322.800 157.221,322.928 157.385,316.859 157.436 C 310.464 157.491,304.467 157.967,301.977 158.617 C 300.754 158.937,298.414 159.452,296.777 159.761 C 295.140 160.071,293.080 160.509,292.200 160.734 C 288.211 161.754,282.361 162.082,272.200 161.854 C 258.854 161.554,257.368 161.397,255.600 160.094 C 254.830 159.527,254.146 159.025,254.081 158.979 C 254.015 158.932,254.079 158.423,254.224 157.847 L 254.487 156.800 262.943 156.792 C 271.823 156.783,280.604 155.906,284.564 154.632 C 285.644 154.284,287.174 153.998,287.964 153.996 C 288.754 153.993,290.284 153.723,291.364 153.396 C 292.444 153.068,294.424 152.796,295.764 152.791 C 297.360 152.785,298.821 152.498,300.000 151.958 C 301.686 151.185,302.396 151.141,311.219 151.265 C 319.695 151.385,320.747 151.327,321.719 150.690 L 322.800 149.982 322.800 144.410 C 322.800 138.202,322.510 137.113,320.648 136.327 C 318.975 135.621,313.686 135.676,312.400 136.413 C 311.849 136.729,309.695 137.103,307.600 137.245 C 305.510 137.387,302.540 137.788,301.000 138.136 C 299.460 138.484,296.600 138.951,294.645 139.173 C 292.604 139.405,290.443 139.914,289.570 140.369 C 287.336 141.533,263.180 141.730,261.452 140.597 C 260.741 140.132,258.802 139.718,255.799 139.392 C 251.880 138.966,251.054 138.748,250.003 137.864 L 248.778 136.833 249.771 136.182 C 250.620 135.626,252.435 135.517,262.282 135.429 C 274.934 135.316,283.143 134.607,288.512 133.163 C 295.737 131.219,296.997 131.082,309.198 130.915 C 323.989 130.714,322.800 131.361,322.800 123.510 C 322.800 116.977,322.439 115.871,320.099 115.221 C 317.646 114.540,285.218 114.692,282.000 115.400 C 280.570 115.715,277.600 115.986,275.400 116.003 C 273.200 116.021,270.590 116.206,269.600 116.416 C 268.610 116.625,265.956 116.959,263.703 117.157 C 260.746 117.417,259.209 117.752,258.180 118.359 C 257.286 118.886,256.054 119.203,254.877 119.208 C 251.568 119.222,246.708 120.233,242.717 121.737 C 240.582 122.542,238.421 123.200,237.916 123.200 C 237.411 123.200,235.738 123.811,234.199 124.558 C 232.659 125.304,230.590 126.126,229.600 126.384 C 228.610 126.642,227.080 127.355,226.200 127.970 C 225.320 128.584,223.880 129.314,223.000 129.592 C 222.120 129.871,221.040 130.417,220.600 130.805 C 219.661 131.634,215.727 134.233,213.565 135.453 C 211.749 136.477,207.200 140.006,207.200 140.391 C 207.200 140.541,206.435 141.220,205.500 141.899 C 204.565 142.578,202.720 144.139,201.400 145.367 C 198.588 147.983,197.605 148.152,195.400 146.400 C 194.569 145.740,193.774 145.200,193.632 145.200 C 193.490 145.200,191.849 143.711,189.987 141.890 C 188.124 140.070,185.430 137.828,184.000 136.908 C 182.570 135.988,180.590 134.669,179.600 133.976 C 176.539 131.834,172.245 129.200,171.812 129.198 C 171.585 129.197,170.182 128.571,168.694 127.808 C 167.206 127.044,164.982 126.126,163.752 125.769 C 162.522 125.411,160.880 124.687,160.102 124.159 C 159.325 123.632,158.201 123.200,157.605 123.200 C 157.009 123.200,154.316 122.476,151.621 121.591 C 148.296 120.499,145.223 119.803,142.060 119.426 C 139.497 119.120,136.791 118.559,136.047 118.180 C 135.303 117.800,133.323 117.344,131.647 117.167 C 129.971 116.991,127.630 116.656,126.445 116.423 C 125.260 116.190,122.193 116.000,119.629 116.000 C 116.776 116.000,114.074 115.767,112.665 115.400 C 109.866 114.671,75.521 114.521,74.300 115.232 M119.200 117.910 C 123.501 118.142,126.436 118.495,127.627 118.924 C 129.352 119.545,131.996 120.026,138.000 120.810 C 139.430 120.996,142.310 121.619,144.400 122.193 C 147.765 123.118,150.396 123.746,155.200 124.769 C 155.970 124.933,157.320 125.433,158.200 125.880 C 159.080 126.326,160.520 126.921,161.400 127.201 C 162.280 127.481,163.990 128.200,165.200 128.800 C 166.410 129.400,168.120 130.117,169.000 130.395 C 169.880 130.672,171.140 131.301,171.800 131.793 C 172.460 132.284,173.988 133.187,175.197 133.799 C 176.405 134.411,177.575 135.126,177.797 135.388 C 178.436 136.144,181.987 138.580,184.509 139.993 C 185.779 140.704,186.994 141.615,187.208 142.015 C 187.649 142.839,194.134 148.426,195.474 149.137 C 197.520 150.222,199.822 149.733,202.087 147.734 C 204.774 145.361,205.398 144.803,207.600 142.802 C 209.568 141.014,224.730 130.800,225.416 130.800 C 225.625 130.800,226.939 130.229,231.600 128.115 C 234.706 126.706,239.194 125.112,242.600 124.208 C 249.960 122.255,250.864 121.987,251.920 121.453 C 252.514 121.152,254.530 120.793,256.400 120.655 C 262.697 120.190,266.590 119.638,268.400 118.953 C 270.881 118.016,278.431 117.615,298.593 117.351 C 322.208 117.042,321.385 116.839,321.394 122.956 C 321.403 128.480,322.024 128.178,310.908 128.053 C 302.535 127.959,301.577 128.020,299.030 128.813 C 297.506 129.287,294.716 129.830,292.830 130.020 C 288.270 130.477,285.381 131.008,283.209 131.787 C 279.946 132.956,276.367 133.158,257.600 133.232 C 246.034 133.278,238.811 133.455,238.500 133.702 C 237.396 134.576,238.122 135.175,241.755 136.385 C 243.820 137.073,246.375 138.251,247.433 139.003 C 248.491 139.755,249.906 140.481,250.578 140.616 C 251.250 140.751,252.520 141.118,253.400 141.431 C 260.465 143.948,291.354 143.840,296.267 141.281 C 297.406 140.688,302.130 139.968,307.400 139.583 C 310.040 139.390,313.280 138.985,314.600 138.683 C 319.687 137.518,321.600 139.019,321.600 144.178 C 321.600 149.514,322.168 149.259,310.396 149.216 C 302.974 149.189,300.115 149.321,298.600 149.757 C 297.500 150.074,295.610 150.461,294.400 150.616 C 293.190 150.772,291.750 151.078,291.200 151.296 C 290.138 151.718,286.740 152.173,280.182 152.773 C 277.716 152.999,275.321 153.484,273.982 154.028 C 271.638 154.981,253.392 155.794,249.200 155.132 C 246.268 154.669,238.370 154.779,239.700 155.265 C 240.327 155.494,240.800 155.967,240.800 156.366 C 240.800 157.439,250.924 161.386,257.800 162.994 C 259.120 163.302,260.988 163.835,261.950 164.177 C 264.428 165.059,284.594 165.060,287.000 164.179 C 289.429 163.290,295.558 162.001,297.381 161.995 C 298.272 161.993,300.378 161.652,302.061 161.239 C 303.745 160.825,306.241 160.471,307.608 160.452 C 309.001 160.432,311.208 160.041,312.629 159.560 C 318.840 157.463,321.350 159.015,321.527 165.064 C 321.709 171.323,322.113 171.030,313.532 170.876 C 305.924 170.739,293.918 171.368,291.400 172.035 C 290.520 172.269,288.810 172.626,287.600 172.830 C 286.390 173.035,283.870 173.463,282.000 173.783 C 274.945 174.991,272.232 175.068,245.000 174.839 C 240.540 174.802,239.729 174.892,239.300 175.474 C 238.473 176.596,238.717 177.045,240.470 177.623 C 241.389 177.926,243.095 178.952,244.261 179.902 C 246.535 181.754,248.938 182.797,250.950 182.805 C 251.638 182.808,253.370 183.203,254.800 183.683 C 258.866 185.048,288.761 185.058,294.132 183.696 C 296.074 183.203,298.256 182.800,298.981 182.800 C 299.706 182.800,301.087 182.507,302.050 182.148 C 305.342 180.922,319.890 180.128,320.881 181.120 C 321.607 181.847,321.606 189.755,320.879 190.480 C 320.478 190.881,317.776 191.005,309.079 191.023 L 297.800 191.045 295.272 192.137 C 293.380 192.955,291.618 193.330,288.272 193.630 C 285.812 193.850,283.260 194.218,282.600 194.447 C 281.940 194.677,279.600 195.019,277.400 195.208 C 275.200 195.397,272.230 195.858,270.800 196.232 C 268.494 196.835,266.631 196.884,254.323 196.660 C 239.463 196.389,238.830 196.430,239.981 197.581 C 240.376 197.976,240.768 198.502,240.850 198.750 C 240.933 198.997,242.710 199.809,244.800 200.555 C 246.890 201.301,249.950 202.552,251.600 203.335 C 253.572 204.271,255.642 204.899,257.642 205.167 C 259.315 205.392,261.172 205.761,261.768 205.988 C 263.531 206.658,285.277 206.527,287.765 205.831 C 288.884 205.518,290.970 205.069,292.400 204.834 C 293.830 204.599,296.170 204.129,297.600 203.790 C 299.030 203.450,302.000 203.070,304.200 202.945 C 306.689 202.803,309.457 202.342,311.526 201.726 C 314.708 200.779,319.064 200.422,320.045 201.028 C 321.938 202.198,322.295 212.624,320.607 217.400 C 319.865 219.497,319.615 221.027,319.608 223.494 C 319.604 225.306,319.430 227.556,319.222 228.494 C 319.015 229.432,318.551 232.000,318.192 234.200 C 317.832 236.400,317.116 240.090,316.600 242.400 C 316.083 244.710,315.534 247.410,315.379 248.400 C 314.994 250.857,311.495 261.458,310.061 264.513 C 309.419 265.881,308.219 268.980,307.396 271.400 C 305.641 276.558,303.580 280.811,301.031 284.533 C 300.024 286.004,299.200 287.319,299.200 287.454 C 299.200 287.988,294.956 294.686,293.733 296.082 C 293.019 296.897,292.060 298.247,291.603 299.082 C 291.146 299.917,290.283 301.244,289.686 302.030 C 289.089 302.817,288.031 304.216,287.337 305.140 C 286.642 306.063,283.672 309.353,280.737 312.450 C 277.801 315.548,275.310 318.204,275.200 318.353 C 275.090 318.502,273.339 320.022,271.309 321.731 C 269.279 323.441,267.479 325.064,267.309 325.338 C 266.335 326.910,257.506 333.774,254.375 335.394 C 253.371 335.913,252.301 336.637,251.998 337.003 C 251.249 337.905,248.693 339.635,245.798 341.200 C 244.479 341.912,242.702 343.047,241.849 343.722 C 240.996 344.396,238.296 345.967,235.849 347.214 C 233.402 348.460,228.367 351.045,224.660 352.958 C 220.954 354.871,216.364 357.080,214.460 357.866 C 212.557 358.652,210.526 359.631,209.947 360.041 C 208.192 361.285,198.198 364.791,196.393 364.797 C 195.839 364.799,194.754 364.371,193.982 363.846 C 193.210 363.321,191.683 362.589,190.589 362.218 C 189.495 361.846,187.700 361.030,186.600 360.403 C 185.500 359.776,183.430 358.822,182.000 358.283 C 179.431 357.314,178.160 356.676,166.800 350.648 C 163.610 348.955,159.650 346.933,158.000 346.154 C 156.350 345.375,154.640 344.416,154.200 344.022 C 153.273 343.194,146.530 339.200,146.057 339.200 C 145.883 339.200,145.303 338.733,144.770 338.162 C 144.236 337.591,142.630 336.419,141.200 335.558 C 139.770 334.696,137.850 333.409,136.932 332.696 C 136.015 331.983,134.260 330.629,133.032 329.687 C 131.805 328.745,130.800 327.826,130.800 327.644 C 130.800 327.462,129.855 326.686,128.700 325.918 C 127.545 325.151,125.082 322.882,123.226 320.876 C 121.370 318.870,119.070 316.668,118.114 315.981 C 117.158 315.294,115.627 313.713,114.712 312.466 C 113.797 311.220,111.508 308.558,109.625 306.552 C 105.475 302.130,102.283 297.869,99.982 293.677 C 99.536 292.865,98.644 291.480,97.999 290.600 C 97.354 289.720,96.821 288.710,96.813 288.355 C 96.806 288.000,96.243 287.010,95.562 286.155 C 94.881 285.300,93.532 282.980,92.565 281.000 C 91.598 279.020,90.410 276.770,89.927 276.000 C 88.572 273.843,86.800 270.007,86.800 269.232 C 86.800 268.849,86.367 267.681,85.839 266.637 C 85.310 265.592,84.755 264.085,84.605 263.288 C 84.456 262.490,84.003 261.190,83.600 260.400 C 83.197 259.610,82.734 258.251,82.572 257.381 C 82.410 256.512,81.862 254.609,81.355 253.154 C 80.848 251.699,80.237 249.283,79.998 247.786 C 79.759 246.289,79.448 244.878,79.308 244.651 C 79.167 244.423,78.839 243.059,78.578 241.619 C 78.317 240.178,77.910 238.190,77.674 237.200 C 77.012 234.422,76.400 229.799,76.400 227.580 C 76.400 226.477,76.062 224.545,75.649 223.287 C 75.237 222.029,74.778 220.486,74.631 219.857 C 74.253 218.244,74.310 118.884,74.689 118.243 C 74.860 117.954,75.270 117.610,75.600 117.479 C 76.454 117.139,111.304 117.483,119.200 117.910 M197.867 268.292 C 197.739 268.499,197.776 269.193,197.949 269.834 L 198.263 271.000 198.471 269.926 C 198.691 268.789,198.268 267.643,197.867 268.292 M198.101 325.400 C 198.105 326.280,198.187 326.593,198.283 326.095 C 198.379 325.598,198.375 324.878,198.275 324.495 C 198.175 324.113,198.096 324.520,198.101 325.400 " stroke="none" fill="#9bc6d4" fill-rule="evenodd"></path><path id="path4" d="M187.248 203.868 C 184.852 205.077,183.491 207.434,183.791 209.853 C 184.021 211.705,183.951 211.980,183.077 212.668 C 180.363 214.802,176.800 215.358,176.800 213.646 C 176.800 209.174,170.157 208.482,167.748 212.702 C 166.184 215.441,165.751 215.853,163.880 216.381 C 161.711 216.993,161.170 217.420,159.800 219.600 C 158.506 221.659,157.811 222.285,156.400 222.661 C 153.469 223.441,151.941 225.763,152.099 229.195 L 152.200 231.390 150.364 231.995 C 146.909 233.134,144.805 235.310,144.801 237.746 C 144.800 238.846,147.147 242.582,148.022 242.874 C 148.240 242.947,147.599 243.454,146.596 244.002 C 142.795 246.079,141.896 251.196,144.897 253.678 C 147.895 256.158,148.400 256.761,148.400 257.866 C 148.400 260.990,151.211 263.200,155.184 263.200 C 156.873 263.200,157.216 263.364,158.488 264.781 C 160.594 267.126,165.031 267.611,166.341 265.639 C 166.705 265.090,167.322 264.800,168.125 264.800 C 169.195 264.800,169.267 264.865,168.689 265.300 C 165.122 267.989,167.377 274.800,171.835 274.800 C 172.900 274.800,175.562 273.581,176.462 272.681 C 178.008 271.134,184.146 273.572,184.797 275.991 C 185.714 279.393,185.140 320.955,184.158 322.271 C 181.893 325.309,175.669 326.086,171.200 323.889 C 167.794 322.215,165.136 323.029,163.385 326.281 C 160.721 331.226,167.418 335.594,171.891 331.830 C 173.123 330.794,173.717 330.683,177.600 330.768 C 179.934 330.820,180.469 332.000,178.158 332.000 C 177.301 332.000,173.512 334.715,172.745 335.878 C 170.555 339.199,174.309 344.258,178.147 343.158 C 180.574 342.462,181.171 342.670,181.983 344.500 C 185.640 352.739,194.800 349.813,191.970 341.310 C 190.223 336.059,191.210 332.739,195.421 329.710 L 197.929 327.906 198.191 323.853 C 198.391 320.761,198.261 275.068,198.033 268.149 C 198.002 267.205,197.665 266.673,196.659 265.985 C 194.522 264.520,194.119 262.877,195.731 262.203 C 198.632 260.991,198.457 262.658,198.322 237.500 L 198.200 214.911 196.703 213.370 C 195.879 212.523,194.997 211.193,194.742 210.415 C 192.769 204.392,190.367 202.294,187.248 203.868 M191.283 215.907 C 192.479 216.858,192.619 217.139,192.276 217.907 C 191.373 219.931,187.600 218.337,187.600 215.930 C 187.600 214.387,189.357 214.376,191.283 215.907 M179.078 217.933 C 179.595 219.477,180.147 220.352,180.818 220.691 C 181.770 221.173,181.754 221.188,180.286 221.194 C 177.461 221.205,176.085 219.488,176.622 216.623 C 177.008 214.563,178.153 215.174,179.078 217.933 M187.209 222.805 C 188.289 223.383,188.679 225.829,187.840 226.756 C 187.118 227.553,185.483 226.381,183.919 223.946 C 182.946 222.431,185.109 221.681,187.209 222.805 M159.297 233.804 C 159.040 235.149,157.600 235.482,156.037 234.558 C 153.885 233.287,154.139 232.800,156.957 232.800 C 159.445 232.800,159.486 232.817,159.297 233.804 M163.333 248.005 L 165.267 249.107 164.444 249.873 C 162.265 251.903,155.889 253.257,154.320 252.023 C 152.166 250.329,153.574 248.486,158.400 246.679 C 159.370 246.316,161.262 246.825,163.333 248.005 M178.224 265.413 C 177.251 266.148,177.020 266.147,176.400 265.400 C 175.972 264.884,176.119 264.802,177.451 264.813 C 178.900 264.825,178.950 264.863,178.224 265.413 M184.000 338.166 C 184.000 338.871,183.736 339.796,183.413 340.224 C 182.874 340.936,182.824 340.811,182.813 338.713 C 182.802 336.840,182.909 336.467,183.400 336.655 C 183.760 336.794,184.000 337.397,184.000 338.166 " stroke="none" fill="#bfa339" fill-rule="evenodd"></path></g></svg>